HIERARCHY
ROOT Hips
{
 OFFSET 0.000000 0.000000 0.000000
 CHANNELS 6 Xposition Yposition Zposition Yrotation Xrotation Zrotation
 JOINT Chest
 {
  OFFSET 0.000000 11.395451 -0.039534
  CHANNELS 3 Yrotation Xrotation Zrotation
  JOINT Chest2
  {
   OFFSET 0.000000 9.398669 0.071813
   CHANNELS 3 Yrotation Xrotation Zrotation
   JOINT Chest3
   {
    OFFSET 0.000000 8.489801 0.000000
    CHANNELS 3 Yrotation Xrotation Zrotation
    JOINT Chest4
    {
     OFFSET 0.000000 8.489801 0.000000
     CHANNELS 3 Yrotation Xrotation Zrotation
     JOINT Neck
     {
      OFFSET 0.000000 12.404889 0.000000
      CHANNELS 3 Yrotation Xrotation Zrotation
      JOINT Head
      {
       OFFSET 0.000000 8.903270 0.092239
       CHANNELS 3 Yrotation Xrotation Zrotation
       End Site
       {
        OFFSET 0.000000 17.592497 0.007158
       }
      }
     }
     JOINT RightCollar
     {
      OFFSET -3.196775 6.966722 0.000000
      CHANNELS 3 Yrotation Xrotation Zrotation
      JOINT RightShoulder
      {
       OFFSET -15.955896 0.000000 0.000000
       CHANNELS 3 Yrotation Xrotation Zrotation
       JOINT RightElbow
       {
        OFFSET -24.792472 0.000000 0.000000
        CHANNELS 3 Yrotation Xrotation Zrotation
        JOINT RightWrist
        {
         OFFSET -20.900115 0.000000 0.025002
         CHANNELS 3 Yrotation Xrotation Zrotation
         End Site
         {
          OFFSET -16.056692 0.000000 0.000000
         }
        }
       }
      }
     }
     JOINT LeftCollar
     {
      OFFSET 3.196775 6.966722 0.000000
      CHANNELS 3 Yrotation Xrotation Zrotation
      JOINT LeftShoulder
      {
       OFFSET 15.955896 0.000000 0.000000
       CHANNELS 3 Yrotation Xrotation Zrotation
       JOINT LeftElbow
       {
        OFFSET 24.792472 0.000000 0.000000
        CHANNELS 3 Yrotation Xrotation Zrotation
        JOINT LeftWrist
        {
         OFFSET 20.900115 0.000000 0.025002
         CHANNELS 3 Yrotation Xrotation Zrotation
         End Site
         {
          OFFSET 16.056692 0.000000 0.000000
         }
        }
       }
      }
     }
    }
   }
  }
 }
 JOINT RightHip
 {
  OFFSET -9.568995 0.193718 0.019767
  CHANNELS 3 Yrotation Xrotation Zrotation
  JOINT RightKnee
  {
   OFFSET 0.000000 -56.649296 0.015402
   CHANNELS 3 Yrotation Xrotation Zrotation
   JOINT RightAnkle
   {
    OFFSET 0.000000 -41.365147 0.021264
    CHANNELS 3 Yrotation Xrotation Zrotation
    JOINT RightToe
    {
     OFFSET 0.000000 -7.465940 17.672538
     CHANNELS 3 Yrotation Xrotation Zrotation
     End Site
     {
      OFFSET 0.000000 -1.736315 7.837145
     }
    }
   }
  }
 }
 JOINT LeftHip
 {
  OFFSET 9.568995 0.193718 0.019767
  CHANNELS 3 Yrotation Xrotation Zrotation
  JOINT LeftKnee
  {
   OFFSET 0.000000 -56.649296 0.015402
   CHANNELS 3 Yrotation Xrotation Zrotation
   JOINT LeftAnkle
   {
    OFFSET 0.000000 -41.365147 0.021264
    CHANNELS 3 Yrotation Xrotation Zrotation
    JOINT LeftToe
    {
     OFFSET 0.000000 -7.465940 17.672538
     CHANNELS 3 Yrotation Xrotation Zrotation
     End Site
     {
      OFFSET 0.000000 -1.736315 7.837145
     }
    }
   }
  }
 }
}
MOTION
Frames: 8
Frame Time: 0.016667
26.857718 54.535044 -73.657225 45.280575 6.094366 2.152087 -2.618757 3.258595 1.040178 -1.170689 1.442361 0.480496 -1.170673 1.442351 0.480493 -0.879083 1.080842 0.363114 -13.546208 18.146726 3.496386 -25.978012 -0.616334 10.668048 -0.507859 2.497661 7.542635 11.296100 -9.701286 76.219650 2.381951 -1.090170 0.658126 -2.803044 -1.689168 -0.003287 -3.002691 3.112656 -6.502506 8.889400 -6.688958 -67.578943 -6.936841 19.885835 -8.199595 5.758048 -3.287045 -6.802257 17.822072 -5.481149 2.912498 3.728300 29.587854 1.203156 29.519234 -12.901777 0.557351 -0.389069 -1.335602 -9.777512 8.878617 -22.607546 -1.958693 -16.035295 8.682471 -0.762770 -3.965960 1.041891 -6.774105 0.000000 0.000000 0.000000
28.296456 54.472723 -72.779817 43.635458 5.648587 2.039467 -2.533495 3.255227 0.820670 -1.131264 1.442245 0.382360 -1.131247 1.442229 0.382357 -0.849282 1.080958 0.289422 -13.517261 18.403166 3.544167 -25.897307 -0.142525 10.690560 -0.632441 2.376984 7.794151 10.451900 -9.046136 76.261313 1.696618 -1.689107 0.588173 -2.681754 -1.875419 -0.289302 -2.775642 2.967445 -6.482366 9.115285 -6.833747 -67.376774 -6.306124 19.177985 -8.188574 5.299188 -3.513252 -5.824417 17.692303 -5.591135 2.543586 3.911037 32.128881 1.634714 31.243952 -11.380015 2.853100 -0.994331 -3.345985 -22.759975 9.072348 -21.993819 -1.382151 -15.761317 10.429897 -1.403757 -1.629162 0.220289 -6.384753 0.000000 0.000000 0.000000
29.689505 54.452627 -71.943188 42.009011 5.306421 1.955932 -2.476315 3.222537 0.582962 -1.104186 1.429115 0.276188 -1.104186 1.429115 0.276188 -0.828743 1.071342 0.209714 -13.461688 18.636053 3.586695 -25.771409 0.281063 10.701830 -0.745809 2.381278 7.928775 9.448064 -8.548196 76.426519 1.197998 -2.159375 0.517951 -2.613948 -2.067112 -0.595145 -2.638373 2.953835 -6.420935 9.174820 -6.995708 -67.246287 -5.771585 18.230074 -8.004186 5.041769 -3.702331 -5.070844 17.346969 -6.122672 1.996494 4.042027 35.112623 2.144986 32.834417 -9.885914 5.771142 -1.548497 -4.725745 -29.163048 8.966735 -21.479092 -0.864832 -14.396376 12.286654 -1.655060 -0.315603 -0.869773 -6.315171 0.000000 0.000000 0.000000
31.024218 54.491227 -71.197500 40.506805 5.175590 1.906221 -2.475991 3.107822 0.325090 -1.102248 1.379548 0.161017 -1.102280 1.379576 0.161018 -0.827057 1.034414 0.123246 -13.388743 18.847287 3.622388 -25.614505 0.660501 10.701089 -0.845646 2.609367 7.818554 8.006849 -8.292995 76.872633 0.936294 -2.314051 0.414742 -2.655586 -2.252502 -0.958177 -2.672091 3.194886 -6.297718 9.002394 -7.153818 -67.276842 -5.432506 16.915186 -7.453369 5.180442 -3.847046 -4.752246 16.780343 -7.301768 1.182951 3.925998 38.748772 2.696283 34.515354 -8.445049 9.564820 -1.754360 -4.009615 -22.581329 8.110448 -21.263359 -0.500393 -10.932515 14.455071 -0.999314 -1.264598 -2.156830 -6.629289 0.000000 0.000000 0.000000
32.313242 54.572051 -70.492590 39.021241 5.150542 1.873256 -2.504283 2.962245 0.051742 -1.113025 1.316303 0.038977 -1.113067 1.316331 0.038975 -0.834877 0.987200 0.031626 -13.288005 19.034458 3.654987 -25.410397 0.990009 10.692819 -0.929283 2.949034 7.579396 6.401288 -8.149580 77.468889 0.866233 -2.344460 0.323971 -2.742545 -2.442778 -1.353354 -2.794017 3.572828 -6.150251 8.666263 -7.335457 -67.377035 -5.196420 15.368525 -6.718096 5.525721 -3.967207 -4.662577 16.017801 -8.930308 0.247929 3.736731 42.850318 3.190044 36.148151 -6.909129 13.943949 -1.057484 -1.850550 -9.634519 6.950455 -21.147565 -0.187398 -6.261148 16.661776 0.185934 -3.242575 -3.682390 -7.091620 0.000000 0.000000 0.000000
33.537258 54.650816 -69.766872 37.308490 5.116359 1.799664 -2.499310 2.881364 -0.191780 -1.109252 1.281626 -0.069684 -1.109252 1.281626 -0.069684 -0.831758 0.961350 -0.049935 -13.122940 19.133069 3.648931 -25.094531 1.134474 10.616354 -0.971208 3.194325 7.381640 5.317358 -7.929305 77.972192 1.019285 -2.644977 0.318771 -2.857796 -2.594515 -1.649406 -2.859253 3.899037 -6.028171 8.188273 -7.585686 -67.342020 -4.974717 13.928500 -6.165189 5.859051 -4.007476 -4.627507 15.094058 -10.695550 -0.536581 3.780343 46.944610 3.566489 36.842789 -5.479204 18.228075 0.000000 0.000000 0.000000 6.839027 -20.840758 -0.081549 -3.357895 18.431797 1.011890 -4.213732 -5.098494 -7.180781 0.000000 0.000000 0.000000
34.679897 54.705786 -68.983805 35.168440 5.034259 1.652758 -2.395910 2.917927 -0.400676 -1.061915 1.298827 -0.162932 -1.061880 1.298775 -0.162921 -0.796008 0.974335 -0.119922 -12.874558 19.078462 3.588395 -24.635698 0.969856 10.450613 -0.960242 3.277096 7.294731 5.133229 -7.602056 78.338783 1.428442 -3.570968 0.433151 -3.076094 -2.690113 -1.832868 -2.811242 4.120122 -5.933866 7.532729 -7.928821 -67.026486 -4.780024 12.617359 -6.038223 6.169358 -3.884853 -4.642959 14.016484 -12.528701 -1.054899 4.299949 50.987249 3.873893 36.046876 -4.170016 22.928526 0.276191 0.558915 2.115388 8.682499 -20.205812 -0.326441 -4.190558 19.630255 0.845826 -2.941092 -6.299976 -6.659725 0.000000 0.000000 0.000000
35.757528 54.758697 -68.179929 32.801779 4.936204 1.468495 -2.260810 3.019253 -0.587365 -1.000586 1.344629 -0.246219 -1.000567 1.344563 -0.246203 -0.749837 1.008785 -0.182432 -12.559924 18.931288 3.497651 -24.058600 0.618315 10.229992 -0.909240 3.270638 7.259428 5.470559 -7.236066 78.618654 2.043649 -4.767345 0.652330 -3.339118 -2.744571 -1.927296 -2.707276 4.287116 -5.858817 6.734103 -8.317690 -66.557743 -4.589773 11.405263 -6.094027 6.464203 -3.684356 -4.720186 12.744157 -14.484777 -1.362688 5.002895 54.997180 4.035768 34.247776 -2.811663 27.533265 0.114469 0.336194 1.045548 11.560656 -19.387876 -0.751894 -6.900124 20.470679 0.208672 -0.644285 -7.405519 -5.900986 0.000000 0.000000 0.000000
